<?xml version="1.0" encoding="UTF-8" standalone="no"?>
<!DOCTYPE svg PUBLIC "-//W3C//DTD SVG 1.1//EN"
 "http://www.w3.org/Graphics/SVG/1.1/DTD/svg11.dtd">
<!-- Generated by graphviz version 2.40.1 (20161225.0304)
 -->
<!-- Title: dependencies Pages: 1 -->
<svg width="2769pt" height="284pt"
 viewBox="0.00 0.00 2769.00 284.00" xmlns="http://www.w3.org/2000/svg" xmlns:xlink="http://www.w3.org/1999/xlink">
<g id="graph0" class="graph" transform="scale(1 1) rotate(0) translate(4 280)">
<title>dependencies</title>
<polygon fill="#ffffff" stroke="transparent" points="-4,4 -4,-280 2765,-280 2765,4 -4,4"/>
<text text-anchor="start" x="1359.5091" y="-42.4" font-family="sans-serif" font-weight="bold" font-size="14.00" fill="#000000">Legend</text>
<polygon fill="#ffffb3" stroke="transparent" points="1146.5,-10 1146.5,-30 1166.5,-30 1166.5,-10 1146.5,-10"/>
<text text-anchor="start" x="1170.129" y="-15.4" font-family="sans-serif" font-size="14.00" fill="#000000"> &#160;Declarations</text>
<polygon fill="#8dd3c7" stroke="transparent" points="1259.5,-10 1259.5,-30 1279.5,-30 1279.5,-10 1259.5,-10"/>
<text text-anchor="start" x="1283.2251" y="-15.4" font-family="sans-serif" font-size="14.00" fill="#000000"> &#160;Module</text>
<polygon fill="#80b1d3" stroke="transparent" points="1345.5,-10 1345.5,-30 1365.5,-30 1365.5,-10 1345.5,-10"/>
<text text-anchor="start" x="1369.2812" y="-15.4" font-family="sans-serif" font-size="14.00" fill="#000000"> &#160;Bootstrap</text>
<polygon fill="#fdb462" stroke="transparent" points="1442.5,-10 1442.5,-30 1462.5,-30 1462.5,-10 1442.5,-10"/>
<text text-anchor="start" x="1466.1732" y="-15.4" font-family="sans-serif" font-size="14.00" fill="#000000"> &#160;Providers</text>
<polygon fill="#fb8072" stroke="transparent" points="1538.5,-10 1538.5,-30 1558.5,-30 1558.5,-10 1538.5,-10"/>
<text text-anchor="start" x="1562.2258" y="-15.4" font-family="sans-serif" font-size="14.00" fill="#000000"> &#160;Exports</text>
<g id="clust1" class="cluster">
<title>cluster_AppModule</title>
<polygon fill="none" stroke="#000000" stroke-dasharray="1,5" points="8,-70 8,-268 2753,-268 2753,-70 8,-70"/>
</g>
<g id="clust2" class="cluster">
<title>cluster_AppModule_declarations</title>
<polygon fill="none" stroke="#000000" points="168,-78 168,-130 2745,-130 2745,-78 168,-78"/>
</g>
<g id="clust20" class="cluster">
<title>cluster_AppModule_imports</title>
<polygon fill="none" stroke="#000000" points="16,-78 16,-130 160,-130 160,-78 16,-78"/>
</g>
<g id="clust22" class="cluster">
<title>cluster_AppModule_bootstrap</title>
<polygon fill="none" stroke="#000000" points="1269,-208 1269,-260 1393,-260 1393,-208 1269,-208"/>
</g>
<!-- AdminComponent -->
<g id="node1" class="node">
<title>AdminComponent</title>
<polygon fill="#ffffb3" stroke="#000000" points="2737.2204,-122 2616.7796,-122 2616.7796,-86 2737.2204,-86 2737.2204,-122"/>
<text text-anchor="middle" x="2677" y="-99.8" font-family="Times,serif" font-size="14.00" fill="#000000">AdminComponent</text>
</g>
<!-- AppModule -->
<g id="node18" class="node">
<title>AppModule</title>
<polygon fill="#8dd3c7" stroke="#000000" points="1372.6571,-187 1369.6571,-191 1348.6571,-191 1345.6571,-187 1289.3429,-187 1289.3429,-151 1372.6571,-151 1372.6571,-187"/>
<text text-anchor="middle" x="1331" y="-164.8" font-family="Times,serif" font-size="14.00" fill="#000000">AppModule</text>
</g>
<!-- AdminComponent&#45;&gt;AppModule -->
<g id="edge1" class="edge">
<title>AdminComponent&#45;&gt;AppModule</title>
<path fill="none" stroke="#000000" d="M2677,-122.3228C2677,-145.6602 2677,-183 2677,-183 2677,-183 1382.7591,-183 1382.7591,-183"/>
<polygon fill="#000000" stroke="#000000" points="1382.7591,-179.5001 1372.7591,-183 1382.759,-186.5001 1382.7591,-179.5001"/>
</g>
<!-- AlertasComponent -->
<g id="node2" class="node">
<title>AlertasComponent</title>
<polygon fill="#ffffb3" stroke="#000000" points="2598.7548,-122 2477.2452,-122 2477.2452,-86 2598.7548,-86 2598.7548,-122"/>
<text text-anchor="middle" x="2538" y="-99.8" font-family="Times,serif" font-size="14.00" fill="#000000">AlertasComponent</text>
</g>
<!-- AlertasComponent&#45;&gt;AppModule -->
<g id="edge2" class="edge">
<title>AlertasComponent&#45;&gt;AppModule</title>
<path fill="none" stroke="#000000" d="M2538,-122.1554C2538,-144.3519 2538,-179 2538,-179 2538,-179 1382.8982,-179 1382.8982,-179"/>
<polygon fill="#000000" stroke="#000000" points="1382.8982,-175.5001 1372.8982,-179 1382.8982,-182.5001 1382.8982,-175.5001"/>
</g>
<!-- AppComponent -->
<g id="node3" class="node">
<title>AppComponent</title>
<polygon fill="#ffffb3" stroke="#000000" points="2458.9399,-122 2353.0601,-122 2353.0601,-86 2458.9399,-86 2458.9399,-122"/>
<text text-anchor="middle" x="2406" y="-99.8" font-family="Times,serif" font-size="14.00" fill="#000000">AppComponent</text>
</g>
<!-- AppComponent&#45;&gt;AppModule -->
<g id="edge3" class="edge">
<title>AppComponent&#45;&gt;AppModule</title>
<path fill="none" stroke="#000000" d="M2406,-122.2843C2406,-143.3211 2406,-175 2406,-175 2406,-175 1382.8113,-175 1382.8113,-175"/>
<polygon fill="#000000" stroke="#000000" points="1382.8114,-171.5001 1372.8113,-175 1382.8113,-178.5001 1382.8114,-171.5001"/>
</g>
<!-- CadastroComponent -->
<g id="node4" class="node">
<title>CadastroComponent</title>
<polygon fill="#ffffb3" stroke="#000000" points="2335.594,-122 2204.406,-122 2204.406,-86 2335.594,-86 2335.594,-122"/>
<text text-anchor="middle" x="2270" y="-99.8" font-family="Times,serif" font-size="14.00" fill="#000000">CadastroComponent</text>
</g>
<!-- CadastroComponent&#45;&gt;AppModule -->
<g id="edge4" class="edge">
<title>CadastroComponent&#45;&gt;AppModule</title>
<path fill="none" stroke="#000000" d="M2270,-122.308C2270,-142.1455 2270,-171 2270,-171 2270,-171 1382.8647,-171 1382.8647,-171"/>
<polygon fill="#000000" stroke="#000000" points="1382.8647,-167.5001 1372.8647,-171 1382.8646,-174.5001 1382.8647,-167.5001"/>
</g>
<!-- CategoriaComponent -->
<g id="node5" class="node">
<title>CategoriaComponent</title>
<polygon fill="#ffffb3" stroke="#000000" points="2186.7548,-122 2051.2452,-122 2051.2452,-86 2186.7548,-86 2186.7548,-122"/>
<text text-anchor="middle" x="2119" y="-99.8" font-family="Times,serif" font-size="14.00" fill="#000000">CategoriaComponent</text>
</g>
<!-- CategoriaComponent&#45;&gt;AppModule -->
<g id="edge5" class="edge">
<title>CategoriaComponent&#45;&gt;AppModule</title>
<path fill="none" stroke="#000000" d="M2119,-122.2222C2119,-140.8285 2119,-167 2119,-167 2119,-167 1382.8099,-167 1382.8099,-167"/>
<polygon fill="#000000" stroke="#000000" points="1382.81,-163.5001 1372.8099,-167 1382.8099,-170.5001 1382.81,-163.5001"/>
</g>
<!-- CategoriasCadastroComponent -->
<g id="node6" class="node">
<title>CategoriasCadastroComponent</title>
<polygon fill="#ffffb3" stroke="#000000" points="2033.4608,-122 1842.5392,-122 1842.5392,-86 2033.4608,-86 2033.4608,-122"/>
<text text-anchor="middle" x="1938" y="-99.8" font-family="Times,serif" font-size="14.00" fill="#000000">CategoriasCadastroComponent</text>
</g>
<!-- CategoriasCadastroComponent&#45;&gt;AppModule -->
<g id="edge6" class="edge">
<title>CategoriasCadastroComponent&#45;&gt;AppModule</title>
<path fill="none" stroke="#000000" d="M1938,-122.0225C1938,-139.3734 1938,-163 1938,-163 1938,-163 1382.7216,-163 1382.7216,-163"/>
<polygon fill="#000000" stroke="#000000" points="1382.7216,-159.5001 1372.7216,-163 1382.7215,-166.5001 1382.7216,-159.5001"/>
</g>
<!-- ContatoComponent -->
<g id="node7" class="node">
<title>ContatoComponent</title>
<polygon fill="#ffffb3" stroke="#000000" points="1824.6652,-122 1699.3348,-122 1699.3348,-86 1824.6652,-86 1824.6652,-122"/>
<text text-anchor="middle" x="1762" y="-99.8" font-family="Times,serif" font-size="14.00" fill="#000000">ContatoComponent</text>
</g>
<!-- ContatoComponent&#45;&gt;AppModule -->
<g id="edge7" class="edge">
<title>ContatoComponent&#45;&gt;AppModule</title>
<path fill="none" stroke="#000000" d="M1762,-122.0091C1762,-138.0494 1762,-159 1762,-159 1762,-159 1382.7177,-159 1382.7177,-159"/>
<polygon fill="#000000" stroke="#000000" points="1382.7177,-155.5001 1372.7177,-159 1382.7177,-162.5001 1382.7177,-155.5001"/>
</g>
<!-- DeleteCategoriaComponent -->
<g id="node8" class="node">
<title>DeleteCategoriaComponent</title>
<polygon fill="#ffffb3" stroke="#000000" points="1681.2864,-122 1508.7136,-122 1508.7136,-86 1681.2864,-86 1681.2864,-122"/>
<text text-anchor="middle" x="1595" y="-99.8" font-family="Times,serif" font-size="14.00" fill="#000000">DeleteCategoriaComponent</text>
</g>
<!-- DeleteCategoriaComponent&#45;&gt;AppModule -->
<g id="edge8" class="edge">
<title>DeleteCategoriaComponent&#45;&gt;AppModule</title>
<path fill="none" stroke="#000000" d="M1595,-122.1243C1595,-136.7832 1595,-155 1595,-155 1595,-155 1382.8316,-155 1382.8316,-155"/>
<polygon fill="#000000" stroke="#000000" points="1382.8316,-151.5001 1372.8316,-155 1382.8315,-158.5001 1382.8316,-151.5001"/>
</g>
<!-- DeleteProdutoComponent -->
<g id="node9" class="node">
<title>DeleteProdutoComponent</title>
<polygon fill="#ffffb3" stroke="#000000" points="1491.1979,-122 1328.8021,-122 1328.8021,-86 1491.1979,-86 1491.1979,-122"/>
<text text-anchor="middle" x="1410" y="-99.8" font-family="Times,serif" font-size="14.00" fill="#000000">DeleteProdutoComponent</text>
</g>
<!-- DeleteProdutoComponent&#45;&gt;AppModule -->
<g id="edge9" class="edge">
<title>DeleteProdutoComponent&#45;&gt;AppModule</title>
<path fill="none" stroke="#000000" d="M1350.8647,-122.1061C1350.8647,-122.1061 1350.8647,-140.991 1350.8647,-140.991"/>
<polygon fill="#000000" stroke="#000000" points="1347.3647,-140.9909 1350.8647,-150.991 1354.3647,-140.991 1347.3647,-140.9909"/>
</g>
<!-- FooterComponent -->
<g id="node10" class="node">
<title>FooterComponent</title>
<polygon fill="#ffffb3" stroke="#000000" points="1310.8809,-122 1193.1191,-122 1193.1191,-86 1310.8809,-86 1310.8809,-122"/>
<text text-anchor="middle" x="1252" y="-99.8" font-family="Times,serif" font-size="14.00" fill="#000000">FooterComponent</text>
</g>
<!-- FooterComponent&#45;&gt;AppModule -->
<g id="edge10" class="edge">
<title>FooterComponent&#45;&gt;AppModule</title>
<path fill="none" stroke="#000000" d="M1300.0561,-122.1061C1300.0561,-122.1061 1300.0561,-140.991 1300.0561,-140.991"/>
<polygon fill="#000000" stroke="#000000" points="1296.5562,-140.9909 1300.0561,-150.991 1303.5562,-140.991 1296.5562,-140.9909"/>
</g>
<!-- HomeComponent -->
<g id="node11" class="node">
<title>HomeComponent</title>
<polygon fill="#ffffb3" stroke="#000000" points="1174.5451,-122 1059.4549,-122 1059.4549,-86 1174.5451,-86 1174.5451,-122"/>
<text text-anchor="middle" x="1117" y="-99.8" font-family="Times,serif" font-size="14.00" fill="#000000">HomeComponent</text>
</g>
<!-- HomeComponent&#45;&gt;AppModule -->
<g id="edge11" class="edge">
<title>HomeComponent&#45;&gt;AppModule</title>
<path fill="none" stroke="#000000" d="M1117,-122.1243C1117,-136.7832 1117,-155 1117,-155 1117,-155 1279.2306,-155 1279.2306,-155"/>
<polygon fill="#000000" stroke="#000000" points="1279.2307,-158.5001 1289.2306,-155 1279.2306,-151.5001 1279.2307,-158.5001"/>
</g>
<!-- LoginComponent -->
<g id="node12" class="node">
<title>LoginComponent</title>
<polygon fill="#ffffb3" stroke="#000000" points="1041.2758,-122 926.7242,-122 926.7242,-86 1041.2758,-86 1041.2758,-122"/>
<text text-anchor="middle" x="984" y="-99.8" font-family="Times,serif" font-size="14.00" fill="#000000">LoginComponent</text>
</g>
<!-- LoginComponent&#45;&gt;AppModule -->
<g id="edge12" class="edge">
<title>LoginComponent&#45;&gt;AppModule</title>
<path fill="none" stroke="#000000" d="M984,-122.0091C984,-138.0494 984,-159 984,-159 984,-159 1279.1437,-159 1279.1437,-159"/>
<polygon fill="#000000" stroke="#000000" points="1279.1437,-162.5001 1289.1437,-159 1279.1437,-155.5001 1279.1437,-162.5001"/>
</g>
<!-- NavbarComponent -->
<g id="node13" class="node">
<title>NavbarComponent</title>
<polygon fill="#ffffb3" stroke="#000000" points="908.0297,-122 785.9703,-122 785.9703,-86 908.0297,-86 908.0297,-122"/>
<text text-anchor="middle" x="847" y="-99.8" font-family="Times,serif" font-size="14.00" fill="#000000">NavbarComponent</text>
</g>
<!-- NavbarComponent&#45;&gt;AppModule -->
<g id="edge13" class="edge">
<title>NavbarComponent&#45;&gt;AppModule</title>
<path fill="none" stroke="#000000" d="M847,-122.0225C847,-139.3734 847,-163 847,-163 847,-163 1279.3155,-163 1279.3155,-163"/>
<polygon fill="#000000" stroke="#000000" points="1279.3156,-166.5001 1289.3155,-163 1279.3155,-159.5001 1279.3156,-166.5001"/>
</g>
<!-- ProdutoComponent -->
<g id="node14" class="node">
<title>ProdutoComponent</title>
<polygon fill="#ffffb3" stroke="#000000" points="767.6666,-122 642.3334,-122 642.3334,-86 767.6666,-86 767.6666,-122"/>
<text text-anchor="middle" x="705" y="-99.8" font-family="Times,serif" font-size="14.00" fill="#000000">ProdutoComponent</text>
</g>
<!-- ProdutoComponent&#45;&gt;AppModule -->
<g id="edge14" class="edge">
<title>ProdutoComponent&#45;&gt;AppModule</title>
<path fill="none" stroke="#000000" d="M705,-122.2222C705,-140.8285 705,-167 705,-167 705,-167 1278.9543,-167 1278.9543,-167"/>
<polygon fill="#000000" stroke="#000000" points="1278.9544,-170.5001 1288.9543,-167 1278.9543,-163.5001 1278.9544,-170.5001"/>
</g>
<!-- PutCategoriaComponent -->
<g id="node15" class="node">
<title>PutCategoriaComponent</title>
<polygon fill="#ffffb3" stroke="#000000" points="624.4284,-122 469.5716,-122 469.5716,-86 624.4284,-86 624.4284,-122"/>
<text text-anchor="middle" x="547" y="-99.8" font-family="Times,serif" font-size="14.00" fill="#000000">PutCategoriaComponent</text>
</g>
<!-- PutCategoriaComponent&#45;&gt;AppModule -->
<g id="edge15" class="edge">
<title>PutCategoriaComponent&#45;&gt;AppModule</title>
<path fill="none" stroke="#000000" d="M547,-122.308C547,-142.1455 547,-171 547,-171 547,-171 1279.1259,-171 1279.1259,-171"/>
<polygon fill="#000000" stroke="#000000" points="1279.126,-174.5001 1289.1259,-171 1279.1259,-167.5001 1279.126,-174.5001"/>
</g>
<!-- PutProdutoComponent -->
<g id="node16" class="node">
<title>PutProdutoComponent</title>
<polygon fill="#ffffb3" stroke="#000000" points="452.3398,-122 307.6602,-122 307.6602,-86 452.3398,-86 452.3398,-122"/>
<text text-anchor="middle" x="380" y="-99.8" font-family="Times,serif" font-size="14.00" fill="#000000">PutProdutoComponent</text>
</g>
<!-- PutProdutoComponent&#45;&gt;AppModule -->
<g id="edge16" class="edge">
<title>PutProdutoComponent&#45;&gt;AppModule</title>
<path fill="none" stroke="#000000" d="M380,-122.2843C380,-143.3211 380,-175 380,-175 380,-175 1279.2179,-175 1279.2179,-175"/>
<polygon fill="#000000" stroke="#000000" points="1279.218,-178.5001 1289.2179,-175 1279.2179,-171.5001 1279.218,-178.5001"/>
</g>
<!-- SobreComponent -->
<g id="node17" class="node">
<title>SobreComponent</title>
<polygon fill="#ffffb3" stroke="#000000" points="289.9902,-122 176.0098,-122 176.0098,-86 289.9902,-86 289.9902,-122"/>
<text text-anchor="middle" x="233" y="-99.8" font-family="Times,serif" font-size="14.00" fill="#000000">SobreComponent</text>
</g>
<!-- SobreComponent&#45;&gt;AppModule -->
<g id="edge17" class="edge">
<title>SobreComponent&#45;&gt;AppModule</title>
<path fill="none" stroke="#000000" d="M233,-122.1554C233,-144.3519 233,-179 233,-179 233,-179 1279.2979,-179 1279.2979,-179"/>
<polygon fill="#000000" stroke="#000000" points="1279.2979,-182.5001 1289.2979,-179 1279.2978,-175.5001 1279.2979,-182.5001"/>
</g>
<!-- AppComponent  -->
<g id="node20" class="node">
<title>AppComponent </title>
<polygon fill="#80b1d3" stroke="#000000" points="1385.439,-252 1276.561,-252 1276.561,-216 1385.439,-216 1385.439,-252"/>
<text text-anchor="middle" x="1331" y="-229.8" font-family="Times,serif" font-size="14.00" fill="#000000">AppComponent </text>
</g>
<!-- AppModule&#45;&gt;AppComponent  -->
<g id="edge19" class="edge">
<title>AppModule&#45;&gt;AppComponent </title>
<path fill="none" stroke="#000000" stroke-dasharray="1,5" d="M1331,-187.1061C1331,-187.1061 1331,-205.991 1331,-205.991"/>
<polygon fill="#000000" stroke="#000000" points="1327.5001,-205.9909 1331,-215.991 1334.5001,-205.991 1327.5001,-205.9909"/>
</g>
<!-- AppRoutingModule -->
<g id="node19" class="node">
<title>AppRoutingModule</title>
<polygon fill="#8dd3c7" stroke="#000000" points="152.2744,-122 149.2744,-126 128.2744,-126 125.2744,-122 23.7256,-122 23.7256,-86 152.2744,-86 152.2744,-122"/>
<text text-anchor="middle" x="88" y="-99.8" font-family="Times,serif" font-size="14.00" fill="#000000">AppRoutingModule</text>
</g>
<!-- AppRoutingModule&#45;&gt;AppModule -->
<g id="edge18" class="edge">
<title>AppRoutingModule&#45;&gt;AppModule</title>
<path fill="none" stroke="#000000" d="M88,-122.3228C88,-145.6602 88,-183 88,-183 88,-183 1279.2877,-183 1279.2877,-183"/>
<polygon fill="#000000" stroke="#000000" points="1279.2878,-186.5001 1289.2877,-183 1279.2877,-179.5001 1279.2878,-186.5001"/>
</g>
</g>
</svg>
